# xmcd
#
# Track frame offsets:
#	150
#	11317
#	23262
#	34680
#	43147
#	56150
#	68890
#	78747
#	88900
#	98904
#	109362
#	118572
#	128602
#	138227
#	151585
#	163722
#	171682
#	181617
#	190182
#	199847
#	211447
#	220907
#	231440
#	242087
#
# Disc length: 3355 seconds
# Revision: 2
# Processed by: cddbd v1.5.2PL0 Copyright (c) Steve Scherf et al.
# Submitted via: dBpowerAMP V12.0
#
DISCID=4d0d1918
DTITLE=Floyd Cramer - Last Date-On The Rebound
DYEAR=1998
DGENRE=Easy Listening
TTITLE0=Last Date
TTITLE1=I Need You Now
TTITLE2=Moments To Remember
TTITLE3=Tennessee Waltz
TTITLE4=Too Young
TTITLE5=Mood Indigo
TTITLE6=Sweetie Baby
TTITLE7=Mumble Jumble
TTITLE8=Flip Flop And Bop
TTITLE9=Fancy Pants
TTITLE10=Rumpus
TTITLE11=Heart And Soul
TTITLE12=On The Rebound
TTITLE13=Wonderland By Night
TTITLE14=I Can Just Imagine
TTITLE15=Faded Love
TTITLE16=Let It Be Me
TTITLE17=Two Of A Kind
TTITLE18=Danny Boy
TTITLE19=Corrina, Corrina
TTITLE20=Tammy
TTITLE21=First Impressions
TTITLE22=San Antonio Rose
TTITLE23=Alma Mater
EXTD=
EXTT0=
EXTT1=
EXTT2=
EXTT3=
EXTT4=
EXTT5=
EXTT6=
EXTT7=
EXTT8=
EXTT9=
EXTT10=
EXTT11=
EXTT12=
EXTT13=
EXTT14=
EXTT15=
EXTT16=
EXTT17=
EXTT18=
EXTT19=
EXTT20=
EXTT21=
EXTT22=
EXTT23=
PLAYORDER=
